<?xml version="1.0" standalone="no"?>
<!DOCTYPE svg PUBLIC "-//W3C//DTD SVG 20010904//EN"
 "http://www.w3.org/TR/2001/REC-SVG-20010904/DTD/svg10.dtd">
<svg version="1.0" xmlns="http://www.w3.org/2000/svg"
 width="1280.000000pt" height="1280.000000pt" viewBox="0 0 1280.000000 1280.000000"
 preserveAspectRatio="xMidYMid meet">
<metadata>
Created by potrace 1.15, written by Peter Selinger 2001-2017
</metadata>
<g transform="translate(0.000000,1280.000000) scale(0.100000,-0.100000)"
fill="#000000" stroke="none">
<path d="M7090 12014 c-744 -66 -1308 -280 -1797 -681 -162 -132 -351 -327
-459 -472 l-38 -51 -241 0 c-341 0 -592 -30 -901 -105 -307 -76 -573 -171
-869 -314 -1070 -515 -1843 -1352 -2236 -2419 -278 -755 -342 -1676 -174
-2517 142 -707 446 -1354 909 -1935 132 -165 457 -489 626 -624 616 -491 1293
-773 2055 -858 157 -17 644 -17 790 0 468 56 890 183 1310 397 336 171 587
356 857 634 478 491 781 1042 1172 2131 37 102 68 190 70 195 2 6 221 73 487
149 266 77 508 147 538 158 30 10 56 16 59 13 3 -2 -7 -109 -22 -237 -102
-916 -103 -1519 0 -2108 94 -545 283 -1005 568 -1384 281 -373 638 -601 1064
-678 154 -27 466 -29 617 -4 490 82 747 322 805 752 13 93 11 289 -3 312 -6 8
-37 12 -96 12 -82 0 -89 -2 -114 -28 -23 -24 -27 -39 -36 -134 -14 -146 -35
-228 -81 -325 -71 -145 -194 -242 -375 -295 -72 -21 -100 -23 -270 -22 -214 1
-286 14 -424 79 -351 167 -581 580 -676 1217 -44 290 -59 842 -35 1251 27 443
115 1276 177 1660 l6 38 46 -7 c74 -11 207 -52 270 -84 84 -42 211 -141 319
-248 l94 -93 83 54 c73 49 83 59 88 93 6 33 2 42 -35 87 -100 119 -301 269
-463 346 -90 43 -229 92 -318 112 -58 12 -58 13 -53 43 13 73 78 593 106 841
116 1051 145 1860 85 2335 -65 501 -213 940 -451 1328 -297 485 -655 810
-1169 1062 -259 128 -457 196 -734 254 -253 54 -400 68 -756 71 -181 1 -350 1
-375 -1z m356 -295 c584 -57 1149 -319 1554 -722 163 -161 349 -427 474 -678
125 -250 194 -503 245 -904 17 -128 17 -151 6 -160 -8 -5 -50 -29 -93 -53
-230 -126 -436 -330 -571 -567 -116 -202 -338 -682 -540 -1167 -84 -201 -711
-1738 -750 -1837 l-17 -45 -140 -28 c-152 -30 -300 -47 -292 -32 3 5 24 39 47
77 175 287 329 703 457 1229 l28 117 94 83 c166 146 364 375 508 588 221 328
382 674 510 1100 l44 144 -22 32 c-21 31 -27 33 -104 39 -107 9 -116 7 -128
-35 -29 -111 -106 -334 -158 -455 -138 -326 -331 -647 -577 -964 -120 -155
-117 -151 -123 -151 -3 0 -6 96 -6 213 -3 698 -182 1299 -557 1862 -372 558
-833 926 -1465 1168 -205 79 -515 164 -697 193 -24 4 -43 10 -43 15 0 16 185
202 295 297 437 376 928 587 1490 641 132 12 405 13 531 0z m-2877 -1241
c-172 -291 -301 -678 -355 -1068 -25 -176 -25 -604 0 -780 85 -607 328 -1089
758 -1505 362 -351 751 -539 1248 -606 141 -19 431 -16 575 5 189 28 430 95
584 163 30 13 56 21 58 19 6 -5 -121 -341 -173 -460 -118 -266 -253 -475 -433
-668 -51 -56 -60 -57 -173 -22 -151 47 -252 107 -355 210 -114 114 -126 117
-210 61 -50 -34 -64 -49 -69 -75 -9 -44 2 -63 78 -146 120 -132 266 -229 428
-284 l53 -18 -86 -76 c-351 -312 -711 -535 -1037 -642 -232 -75 -431 -106
-695 -106 -173 0 -276 10 -424 40 -388 81 -815 330 -1076 628 -225 256 -418
645 -484 973 -65 321 -52 585 50 998 22 90 37 166 34 169 -6 6 -213 71 -227
72 -15 0 -101 -322 -135 -505 -25 -141 -25 -531 0 -695 78 -492 280 -895 632
-1259 427 -441 959 -679 1586 -710 605 -29 1134 89 1578 354 230 137 434 300
673 536 l147 146 108 7 c59 4 178 15 263 25 85 10 156 17 156 17 3 -2 -54
-151 -151 -396 -339 -860 -559 -1235 -980 -1669 -662 -683 -1517 -983 -2530
-890 -1092 101 -2131 767 -2741 1756 -105 169 -272 503 -341 678 -187 478
-274 949 -275 1485 0 505 67 919 226 1387 196 577 497 1086 916 1548 171 189
379 378 597 542 463 350 897 565 1401 693 231 59 599 115 774 119 l57 1 -30
-52z m606 6 c545 -105 1008 -309 1385 -611 107 -85 296 -273 380 -378 154
-190 327 -483 423 -715 169 -408 253 -888 226 -1285 -9 -134 -34 -355 -46
-402 -4 -18 -37 -39 -137 -88 -375 -184 -718 -256 -1076 -224 -289 26 -576
123 -835 281 -364 223 -601 486 -795 883 -156 318 -224 594 -237 965 -18 528
106 1007 390 1504 l62 108 65 -6 c36 -4 124 -18 195 -32z m4562 -1731 c-14
-439 -50 -681 -283 -1888 -47 -242 -101 -527 -119 -634 -19 -107 -38 -198 -42
-202 -13 -12 -149 -56 -358 -114 -110 -31 -255 -74 -322 -96 -169 -54 -343
-97 -343 -85 0 20 224 737 325 1041 366 1103 660 1740 924 2005 72 71 198 170
219 170 3 0 2 -89 -1 -197z"/>
</g>
</svg>
