<svg width="175.2125px" height="180.79999999999998px" xmlns="http://www.w3.org/2000/svg" viewBox="162.39375 -15.399999999999991 175.2125 180.79999999999998" style="background: rgba(0, 0, 0, 0);" preserveAspectRatio="xMidYMid"><defs><filter id="editing-extrusion" x="-100%" y="-100%" width="300%" height="300%"><feFlood result="color1" flood-color="#444"></feFlood><feConvolveMatrix order="8,8" divisor="1" kernelMatrix="1 0 0 0 0 0 0 0 0 1 0 0 0 0 0 0 0 0 1 0 0 0 0 0 0 0 0 1 0 0 0 0 0 0 0 0 1 0 0 0 0 0 0 0 0 1 0 0 0 0 0 0 0 0 1 0 0 0 0 0 0 0 0 1" in="SourceAlpha" result="extrude"></feConvolveMatrix><feComposite in="color1" in2="extrude" result="comp-extrude" operator="in"></feComposite><feOffset dx="4" dy="4" in="comp-extrude" result="offset-extrude"></feOffset><feMerge><feMergeNode in="offset-extrude"></feMergeNode><feMergeNode in="SourceGraphic"></feMergeNode></feMerge></filter></defs><g filter="url(#editing-extrusion)"><g transform="translate(193.37500381469727, 100.18500328063965)"><path d="M41.25-2.81L41.25-2.81L41.25-2.81Q41.25-4.38 41.47-5.94L41.47-5.94L41.47-5.94Q41.69-7.50 41.97-9.03L41.97-9.03L41.97-9.03Q42.25-10.56 42.47-12.16L42.47-12.16L42.47-12.16Q42.69-13.75 42.69-15.38L42.69-15.38L42.69-15.38Q40.63-15.38 39.13-15.19L39.13-15.19L39.13-15.19Q37.63-15 36.19-14.81L36.19-14.81L36.19-14.81Q34.75-14.63 33.13-14.53L33.13-14.53L33.13-14.53Q31.50-14.44 29.19-14.56L29.19-14.56L29.19-14.56Q27.50-12.69 25.34-10.56L25.34-10.56L25.34-10.56Q23.19-8.44 20.75-6.63L20.75-6.63L20.75-6.63Q18.31-4.81 15.63-3.59L15.63-3.59L15.63-3.59Q12.94-2.38 10.19-2.38L10.19-2.38L10.19-2.38Q8.31-2.38 6.59-3L6.59-3L6.59-3Q4.88-3.63 3.56-4.75L3.56-4.75L3.56-4.75Q2.25-5.88 1.50-7.47L1.50-7.47L1.50-7.47Q0.75-9.06 0.75-11L0.75-11L0.75-11Q0.75-12 1.09-12.53L1.09-12.53L1.09-12.53Q1.44-13.06 2.56-13.06L2.56-13.06L2.56-13.06Q3.13-13.06 3.56-12.03L3.56-12.03L3.56-12.03Q4-11 4.72-9.72L4.72-9.72L4.72-9.72Q5.44-8.44 6.56-7.41L6.56-7.41L6.56-7.41Q7.69-6.38 9.63-6.38L9.63-6.38L9.63-6.38Q12-6.38 14.28-7.28L14.28-7.28L14.28-7.28Q16.56-8.19 18.66-9.59L18.66-9.59L18.66-9.59Q20.75-11 22.59-12.75L22.59-12.75L22.59-12.75Q24.44-14.50 25.94-16.19L25.94-16.19L25.94-16.19Q25.75-17.75 24.81-18.50L24.81-18.50L24.81-18.50Q23.88-19.25 22.84-20L22.84-20L22.84-20Q21.81-20.75 21-22L21-22L21-22Q20.19-23.25 20.19-25.94L20.19-25.94L20.19-25.94Q20.19-29.75 22.50-31.91L22.50-31.91L22.50-31.91Q24.81-34.06 28.81-34.06L28.81-34.06L28.81-34.06Q30-34.06 31.16-33.81L31.16-33.81L31.16-33.81Q32.31-33.56 33.50-33.22L33.50-33.22L33.50-33.22Q34.69-32.88 35.84-32.63L35.84-32.63L35.84-32.63Q37-32.38 38.19-32.38L38.19-32.38L38.19-32.38Q38.94-32.38 39.41-32.56L39.41-32.56L39.41-32.56Q39.88-32.75 40.25-33.13L40.25-33.13L40.25-33.13Q40.63-33.50 41.06-34.13L41.06-34.13L41.06-34.13Q41.50-34.75 42.19-35.63L42.19-35.63L42.19-35.63Q42.56-36.13 43.34-37.22L43.34-37.22L43.34-37.22Q44.13-38.31 45.06-39.66L45.06-39.66L45.06-39.66Q46-41 47.06-42.50L47.06-42.50L47.06-42.50Q48.13-44 49.06-45.38L49.06-45.38L49.06-45.38Q50-46.75 50.75-47.81L50.75-47.81L50.75-47.81Q51.50-48.88 51.81-49.44L51.81-49.44L51.81-49.44Q52.50-50 53.06-50.16L53.06-50.16L53.06-50.16Q53.63-50.31 54.38-50.31L54.38-50.31L54.38-50.31Q55.13-50.31 55.50-49.78L55.50-49.78L55.50-49.78Q55.88-49.25 55.97-48.50L55.97-48.50L55.97-48.50Q56.06-47.75 56.03-46.97L56.03-46.97L56.03-46.97Q56-46.19 56-45.75L56-45.75L56-45.75Q56-45.56 56-45.16L56-45.16L56-45.16Q56-44.75 55.97-44.31L55.97-44.31L55.97-44.31Q55.94-43.88 55.94-43.47L55.94-43.47L55.94-43.47Q55.94-43.06 55.94-42.94L55.94-42.94L55.94-42.94Q55.75-42.31 55.34-41.06L55.34-41.06L55.34-41.06Q54.94-39.81 54.44-38.22L54.44-38.22L54.44-38.22Q53.94-36.63 53.41-34.88L53.41-34.88L53.41-34.88Q52.88-33.13 52.41-31.50L52.41-31.50L52.41-31.50Q51.94-29.88 51.56-28.63L51.56-28.63L51.56-28.63Q51.19-27.38 51.06-26.75L51.06-26.75L51.06-26.75Q51-26.44 50.88-25.75L50.88-25.75L50.88-25.75Q50.75-25.06 50.63-24.28L50.63-24.28L50.63-24.28Q50.50-23.50 50.38-22.81L50.38-22.81L50.38-22.81Q50.25-22.13 50.25-21.88L50.25-21.88L50.25-21.88Q50.81-21.75 51.38-21.50L51.38-21.50L51.38-21.50Q51.94-21.25 51.94-20.69L51.94-20.69L51.94-20.69Q51.94-20.06 51.47-19.69L51.47-19.69L51.47-19.69Q51-19.31 50.38-19L50.38-19L50.38-19Q49.75-18.69 49.22-18.25L49.22-18.25L49.22-18.25Q48.69-17.81 48.63-17L48.63-17L48.63-17Q48.50-16.25 48.19-14.28L48.19-14.28L48.19-14.28Q47.88-12.31 47.47-10.09L47.47-10.09L47.47-10.09Q47.06-7.88 46.72-5.94L46.72-5.94L46.72-5.94Q46.38-4 46.19-3.25L46.19-3.25L46.19-3.25Q46.13-3.06 45.94-2.56L45.94-2.56L45.94-2.56Q45.75-2.06 45.50-1.56L45.50-1.56L45.50-1.56Q45.25-1.06 45-0.63L45-0.63L45-0.63Q44.75-0.19 44.63 0L44.63 0L44.63 0Q43.13-0.31 42.19-0.78L42.19-0.78L42.19-0.78Q41.25-1.25 41.25-2.81ZM40.19-26.81L40.19-26.81L40.19-26.81Q39.44-26.81 38.09-25.75L38.09-25.75L38.09-25.75Q36.75-24.69 35.44-23.28L35.44-23.28L35.44-23.28Q34.13-21.88 33.13-20.47L33.13-20.47L33.13-20.47Q32.13-19.06 32.13-18.38L32.13-18.38L32.13-18.38Q32.50-18.38 33.59-18.41L33.59-18.41L33.59-18.41Q34.69-18.44 35.91-18.47L35.91-18.47L35.91-18.47Q37.13-18.50 38.22-18.56L38.22-18.56L38.22-18.56Q39.31-18.63 39.75-18.63L39.75-18.63L39.75-18.63Q40-18.63 40.53-18.75L40.53-18.75L40.53-18.75Q41.06-18.88 41.56-19L41.56-19L41.56-19Q42.06-19.13 42.47-19.25L42.47-19.25L42.47-19.25Q42.88-19.38 42.94-19.44L42.94-19.44L42.94-19.44Q43-19.44 43-19.84L43-19.84L43-19.84Q43-20.25 43-20.50L43-20.50L43-20.50Q43-21 42.84-22.06L42.84-22.06L42.84-22.06Q42.69-23.13 42.34-24.19L42.34-24.19L42.34-24.19Q42-25.25 41.47-26.03L41.47-26.03L41.47-26.03Q40.94-26.81 40.19-26.81ZM22.63-26.75L22.63-26.75L22.63-26.75Q22.63-25.88 23.25-24.75L23.25-24.75L23.25-24.75Q23.88-23.63 24.81-22.63L24.81-22.63L24.81-22.63Q25.75-21.63 26.81-20.94L26.81-20.94L26.81-20.94Q27.88-20.25 28.81-20.25L28.81-20.25L28.81-20.25Q29.69-20.25 30.88-21.31L30.88-21.31L30.88-21.31Q32.06-22.38 33.16-23.78L33.16-23.78L33.16-23.78Q34.25-25.19 35-26.50L35-26.50L35-26.50Q35.75-27.81 35.75-28.31L35.75-28.31L35.75-28.31Q35.75-29.38 35.03-29.91L35.03-29.91L35.03-29.91Q34.31-30.44 33.34-30.66L33.34-30.66L33.34-30.66Q32.38-30.88 31.31-30.88L31.31-30.88L31.31-30.88Q30.25-30.88 29.56-30.88L29.56-30.88L29.56-30.88Q28.69-30.88 27.47-30.72L27.47-30.72L27.47-30.72Q26.25-30.56 25.19-30.13L25.19-30.13L25.19-30.13Q24.13-29.69 23.38-28.88L23.38-28.88L23.38-28.88Q22.63-28.06 22.63-26.75ZM51.75-42.63L41.38-29.94L41.38-29.94Q42.75-28.31 43.94-26.44L43.94-26.44L43.94-26.44Q45.13-24.56 46.19-22.63L46.19-22.63L51.75-42.63ZM55.25-6.06L55.25-6.06L55.25-6.06Q55.25-7.88 55.94-9.69L55.94-9.69L55.94-9.69Q56.63-11.50 57.56-13.28L57.56-13.28L57.56-13.28Q58.50-15.06 59.47-16.81L59.47-16.81L59.47-16.81Q60.44-18.56 60.94-20.25L60.94-20.25L60.94-20.25Q59.75-19.56 58.91-19.47L58.91-19.47L58.91-19.47Q58.06-19.38 56.88-19.38L56.88-19.38L56.88-19.38Q56.75-19.38 56.09-19.41L56.09-19.41L56.09-19.41Q55.44-19.44 55.25-19.44L55.25-19.44L55.25-19.44Q55.63-20.81 56.63-21.91L56.63-21.91L56.63-21.91Q57.63-23 58.91-23.78L58.91-23.78L58.91-23.78Q60.19-24.56 61.59-25.09L61.59-25.09L61.59-25.09Q63-25.63 64.13-25.94L64.13-25.94L64.13-25.94Q66-28.88 67.19-31.84L67.19-31.84L67.19-31.84Q68.38-34.81 69.59-37.66L69.59-37.66L69.59-37.66Q70.81-40.50 72.47-43.09L72.47-43.09L72.47-43.09Q74.13-45.69 76.94-47.88L76.94-47.88L77.25-45.50L69.44-27.19L69.44-27.19Q70.13-27.38 71.13-27.56L71.13-27.56L71.13-27.56Q72.13-27.75 73.16-27.94L73.16-27.94L73.16-27.94Q74.19-28.13 75.16-28.28L75.16-28.28L75.16-28.28Q76.13-28.44 76.81-28.63L76.81-28.63L76.81-28.63Q76.88-28.63 77.19-28.66L77.19-28.66L77.19-28.66Q77.50-28.69 77.69-28.69L77.69-28.69L77.69-28.69Q78.56-28.69 79.13-28.38L79.13-28.38L79.13-28.38Q79.69-28.06 80.06-27L80.06-27L80.06-27Q75.81-25.75 72.38-24.38L72.38-24.38L72.38-24.38Q68.94-23 66.41-20.78L66.41-20.78L66.41-20.78Q63.88-18.56 62.28-15.16L62.28-15.16L62.28-15.16Q60.69-11.75 60.06-6.44L60.06-6.44L60.06-6.44Q60.06-5.31 60.19-4.38L60.19-4.38L60.19-4.38Q60.31-3.44 61.75-3.25L61.75-3.25L61.75-3.25Q63.19-3.25 64.44-3.81L64.44-3.81L64.44-3.81Q65.69-4.38 66.88-5.03L66.88-5.03L66.88-5.03Q68.06-5.69 69.28-6.25L69.28-6.25L69.28-6.25Q70.50-6.81 71.94-6.81L71.94-6.81L71.94-6.81Q71.94-5.31 70.63-4.06L70.63-4.06L70.63-4.06Q69.31-2.81 67.47-1.88L67.47-1.88L67.47-1.88Q65.63-0.94 63.69-0.44L63.69-0.44L63.69-0.44Q61.75 0.06 60.50 0.06L60.50 0.06L60.50 0.06Q59.25 0.06 58.25-0.44L58.25-0.44L58.25-0.44Q57.25-0.94 56.59-1.78L56.59-1.78L56.59-1.78Q55.94-2.63 55.59-3.75L55.59-3.75L55.59-3.75Q55.25-4.88 55.25-6.06ZM71.69-4.06L71.69-4.06L71.69-4.06Q71.69-4.94 71.88-5.59L71.88-5.59L71.88-5.59Q72.06-6.25 72.56-7.31L72.56-7.31L72.56-7.31Q73-7.94 74.16-9.69L74.16-9.69L74.16-9.69Q75.31-11.44 76.59-13.38L76.59-13.38L76.59-13.38Q77.88-15.31 79.03-17.03L79.03-17.03L79.03-17.03Q80.19-18.75 80.63-19.44L80.63-19.44L80.63-19.44Q81.19-20.25 81.50-20.31L81.50-20.31L81.50-20.31Q81.81-20.38 82.69-20.38L82.69-20.38L82.69-20.38Q83.25-20.38 83.91-20.31L83.91-20.31L83.91-20.31Q84.56-20.25 84.75-19.44L84.75-19.44L84.75-19.44Q83.88-17.31 82.41-15.41L82.41-15.41L82.41-15.41Q80.94-13.50 79.53-11.63L79.53-11.63L79.53-11.63Q78.13-9.75 77.06-7.78L77.06-7.78L77.06-7.78Q76-5.81 76-3.56L76-3.56L76-3.56Q76.25-3.56 76.78-3.50L76.78-3.50L76.78-3.50Q77.31-3.44 77.94-3.38L77.94-3.38L77.94-3.38Q78.56-3.31 79.09-3.25L79.09-3.25L79.09-3.25Q79.63-3.19 79.88-3.25L79.88-3.25L79.88-3.25Q80.25-3.31 81.16-3.53L81.16-3.53L81.16-3.53Q82.06-3.75 83.09-4L83.09-4L83.09-4Q84.13-4.25 85.06-4.50L85.06-4.50L85.06-4.50Q86-4.75 86.38-4.88L86.38-4.88L86.38-4.88Q86.38-4.75 86.41-4.47L86.41-4.47L86.41-4.47Q86.44-4.19 86.44-4.06L86.44-4.06L86.44-4.06Q86.44-2.81 85.28-2L85.28-2L85.28-2Q84.13-1.19 82.59-0.72L82.59-0.72L82.59-0.72Q81.06-0.25 79.47-0.09L79.47-0.09L79.47-0.09Q77.88 0.06 77 0.06L77 0.06L77 0.06Q76.06 0.06 75.09-0.16L75.09-0.16L75.09-0.16Q74.13-0.38 73.38-0.88L73.38-0.88L73.38-0.88Q72.63-1.38 72.16-2.16L72.16-2.16L72.16-2.16Q71.69-2.94 71.69-4.06ZM89.88-40.69L89.88-40.69L89.88-40.69Q90.69-40.69 91.38-40.63L91.38-40.63L91.38-40.63Q92.06-40.56 92.56-40.31L92.56-40.31L92.56-40.31Q93.06-40.06 93.38-39.56L93.38-39.56L93.38-39.56Q93.69-39.06 93.69-38.19L93.69-38.19L93.69-38.19Q93.69-37.81 93.69-37.38L93.69-37.38L93.69-37.38Q93.69-36.94 93.59-36.53L93.59-36.53L93.59-36.53Q93.50-36.13 93.25-35.84L93.25-35.84L93.25-35.84Q93-35.56 92.44-35.56L92.44-35.56L92.44-35.56Q91.56-35.56 91.03-36.19L91.03-36.19L91.03-36.19Q90.50-36.81 90.25-37.66L90.25-37.66L90.25-37.66Q90-38.50 89.94-39.38L89.94-39.38L89.94-39.38Q89.88-40.25 89.88-40.69ZM86.50-5.69L86.50-5.69L86.50-5.69Q86.50-6.50 86.91-7.53L86.91-7.53L86.91-7.53Q87.31-8.56 88.19-8.88L88.19-8.88L88.19-8.88Q88.31-8.94 88.53-8.97L88.53-8.97L88.53-8.97Q88.75-9 88.94-9.06L88.94-9.06L88.94-9.06Q89.19-9.13 89.38-9.13L89.38-9.13L89.38-5.69L89.38-5.69Q89.75-6.06 90.53-7.06L90.53-7.06L90.53-7.06Q91.31-8.06 92.16-9.22L92.16-9.22L92.16-9.22Q93-10.38 93.72-11.44L93.72-11.44L93.72-11.44Q94.44-12.50 94.69-13L94.69-13L109.25-41.38L109.25-41.38Q109.25-41.38 109.59-41.75L109.59-41.75L109.59-41.75Q109.94-42.13 110.41-42.28L110.41-42.28L110.41-42.28Q110.88-42.44 111.44-42.13L111.44-42.13L111.44-42.13Q112-41.81 112.50-40.50L112.50-40.50L103.63-22.63L103.63-21.88L103.63-21.88Q105.38-21.63 106.88-21.16L106.88-21.16L106.88-21.16Q108.38-20.69 109.47-19.81L109.47-19.81L109.47-19.81Q110.56-18.94 111.19-17.66L111.19-17.66L111.19-17.66Q111.81-16.38 111.81-14.56L111.81-14.56L111.81-14.56Q111.81-11.50 110.22-8.84L110.22-8.84L110.22-8.84Q108.63-6.19 106.13-4.22L106.13-4.22L106.13-4.22Q103.63-2.25 100.59-1.09L100.59-1.09L100.59-1.09Q97.56 0.06 94.75 0.06L94.75 0.06L94.75 0.06Q93.50 0.06 92.06-0.28L92.06-0.28L92.06-0.28Q90.63-0.63 89.41-1.34L89.41-1.34L89.41-1.34Q88.19-2.06 87.34-3.16L87.34-3.16L87.34-3.16Q86.50-4.25 86.50-5.69ZM104.31-17.94L104.31-17.94L104.31-17.94Q103.44-17.94 102.41-17.13L102.41-17.13L102.41-17.13Q101.38-16.31 100.38-15.03L100.38-15.03L100.38-15.03Q99.38-13.75 98.44-12.16L98.44-12.16L98.44-12.16Q97.50-10.56 96.78-9L96.78-9L96.78-9Q96.06-7.44 95.63-6.06L95.63-6.06L95.63-6.06Q95.19-4.69 95.19-3.88L95.19-3.88L95.19-3.88Q96.94-3.88 99.13-4.69L99.13-4.69L99.13-4.69Q101.31-5.50 103.22-6.84L103.22-6.84L103.22-6.84Q105.13-8.19 106.41-9.97L106.41-9.97L106.41-9.97Q107.69-11.75 107.69-13.69L107.69-13.69L107.69-13.69Q107.69-15.38 107-16.66L107-16.66L107-16.66Q106.31-17.94 104.31-17.94Z" fill="#ccc"></path></g></g><style>text {
  font-size: 64px;
  font-family: Arial Black;
  dominant-baseline: central;
  text-anchor: middle;
}</style></svg>